<svg xmlns="http://www.w3.org/2000/svg" viewBox="0 0 160 160" width="100%" height="100%">
  <defs>
    <linearGradient id="bronzeBase" x1="0%" y1="0%" x2="100%" y2="100%">
      <stop offset="0%" stop-color="#b89a5b" />
      <stop offset="25%" stop-color="#8a6f3e" />
      <stop offset="50%" stop-color="#dfca9e" />
      <stop offset="75%" stop-color="#69532d" />
      <stop offset="100%" stop-color="#a38526" />
    </linearGradient>
    <linearGradient id="bronzeHighlight" x1="0%" y1="100%" x2="100%" y2="0%">
      <stop offset="0%" stop-color="#544324" stop-opacity="0.8"/>
      <stop offset="50%" stop-color="#f5e6c4" stop-opacity="0.9"/>
      <stop offset="100%" stop-color="#40321a" stop-opacity="0.9"/>
    </linearGradient>
    <filter id="3dShadow" x="-20%" y="-20%" width="150%" height="150%">
      <feDropShadow dx="2" dy="3" stdDeviation="1.5" flood-color="#000000" flood-opacity="0.6"/>
    </filter>
    <filter id="metallicBevel">
      <feGaussianBlur stdDeviation="0.8" result="blur"/>
      <feSpecularLighting in="blur" surfaceScale="3" specularConstant="1.2" specularExponent="18" lighting-color="#fff" result="specOut">
        <fePointLight x="-50" y="-100" z="200"/>
      </feSpecularLighting>
      <feComposite in="specOut" in2="SourceGraphic" operator="in" result="specChar"/>
      <feComposite in="SourceGraphic" in2="specChar" operator="arithmetic" k1="0" k2="1" k3="0.6" k4="0"/>
    </filter>
  </defs>
  <g filter="url(#3dShadow)">
    <path d="M 88 52 C 112 52, 126 62, 126 76 C 126 88, 114 94, 98 95 C 118 96, 128 104, 128 120 C 128 136, 110 144, 84 144 L 84 135 C 104 135, 118 129, 118 120 C 118 110, 106 104, 88 104 L 84 104 L 84 95 L 88 95 C 104 95, 116 88, 116 76 C 116 66, 104 60, 88 60 Z" fill="url(#bronzeBase)" stroke="url(#bronzeHighlight)" stroke-width="1" filter="url(#metallicBevel)" />
    <path d="M 72 38 C 96 38, 110 48, 110 62 C 110 74, 98 80, 82 81 C 102 82, 112 90, 112 106 C 112 122, 94 130, 68 130 L 68 121 C 88 121, 102 115, 102 106 C 102 96, 90 90, 72 90 L 68 90 L 68 81 L 72 81 C 88 81, 100 74, 100 62 C 100 52, 88 46, 72 46 Z" fill="url(#bronzeBase)" stroke="url(#bronzeHighlight)" stroke-width="1" filter="url(#metallicBevel)" />
    <path d="M 46 44 L 56 44 L 56 68 L 80 68 L 80 78 L 56 78 L 56 148 L 46 148 L 46 78 L 22 78 L 22 68 L 46 68 Z" fill="url(#bronzeBase)" stroke="url(#bronzeHighlight)" stroke-width="1.2" filter="url(#metallicBevel)" />
    <path d="M 51 47 L 51 145 M 25 73 L 77 73" fill="none" stroke="url(#bronzeHighlight)" stroke-width="1.5" stroke-linecap="round" opacity="0.8"/>
    <path d="M 51 10 C 47 22, 42 27, 49 34 C 53 38, 55 41, 51 44 C 57 41, 58 35, 54 30 C 50 26, 54 18, 51 10 Z" fill="url(#bronzeBase)" stroke="url(#bronzeHighlight)" stroke-width="0.8" filter="url(#metallicBevel)" />
    <path d="M 51 16 C 49 24, 46 28, 51 35 C 53 32, 53 26, 51 16 Z" fill="url(#bronzeHighlight)" opacity="0.6" />
  </g>
</svg>
